<svg width="103" height="37" viewBox="0 0 150 37" fill="none" xmlns="http://www.w3.org/2000/svg">
<path d="M16.976 36.72C13.52 36.72 10.56 35.968 8.096 34.464C5.632 32.944 3.736 30.832 2.408 28.128C1.096 25.424 0.44 22.288 0.44 18.72C0.44 15.152 1.096 12.016 2.408 9.312C3.736 6.608 5.632 4.504 8.096 3C10.56 1.48 13.52 0.719999 16.976 0.719999C20.432 0.719999 23.392 1.48 25.856 3C28.336 4.504 30.232 6.608 31.544 9.312C32.872 12.016 33.536 15.152 33.536 18.72C33.536 22.288 32.872 25.424 31.544 28.128C30.232 30.832 28.336 32.944 25.856 34.464C23.392 35.968 20.432 36.72 16.976 36.72ZM16.976 31.272C19.296 31.288 21.224 30.776 22.76 29.736C24.312 28.696 25.472 27.232 26.24 25.344C27.024 23.456 27.416 21.248 27.416 18.72C27.416 16.192 27.024 14 26.24 12.144C25.472 10.272 24.312 8.816 22.76 7.776C21.224 6.736 19.296 6.2 16.976 6.168C14.656 6.152 12.728 6.664 11.192 7.704C9.656 8.744 8.496 10.208 7.712 12.096C6.944 13.984 6.56 16.192 6.56 18.72C6.56 21.248 6.944 23.448 7.712 25.32C8.48 27.176 9.632 28.624 11.168 29.664C12.72 30.704 14.656 31.24 16.976 31.272ZM56.2411 36V23.52C56.2411 22.704 56.1851 21.8 56.0731 20.808C55.9611 19.816 55.6971 18.864 55.2811 17.952C54.8811 17.024 54.2731 16.264 53.4571 15.672C52.6571 15.08 51.5691 14.784 50.1931 14.784C49.4571 14.784 48.7291 14.904 48.0091 15.144C47.2891 15.384 46.6331 15.8 46.0411 16.392C45.4651 16.968 45.0011 17.768 44.6491 18.792C44.2971 19.8 44.1211 21.096 44.1211 22.68L40.6891 21.216C40.6891 19.008 41.1131 17.008 41.9611 15.216C42.8251 13.424 44.0891 12 45.7531 10.944C47.4171 9.872 49.4651 9.336 51.8971 9.336C53.8171 9.336 55.4011 9.656 56.6491 10.296C57.8971 10.936 58.8891 11.752 59.6251 12.744C60.3611 13.736 60.9051 14.792 61.2571 15.912C61.6091 17.032 61.8331 18.096 61.9291 19.104C62.0411 20.096 62.0971 20.904 62.0971 21.528V36H56.2411ZM38.2651 36V10.08H43.4251V18.12H44.1211V36H38.2651ZM79.7221 36.72C77.0981 36.72 74.7941 36.152 72.8101 35.016C70.8261 33.88 69.2741 32.304 68.1541 30.288C67.0501 28.272 66.4981 25.952 66.4981 23.328C66.4981 20.496 67.0421 18.04 68.1301 15.96C69.2181 13.864 70.7301 12.24 72.6661 11.088C74.6021 9.936 76.8421 9.36 79.3861 9.36C82.0741 9.36 84.3541 9.992 86.2261 11.256C88.1141 12.504 89.5141 14.272 90.4261 16.56C91.3381 18.848 91.6821 21.544 91.4581 24.648H85.7221V22.536C85.7061 19.72 85.2101 17.664 84.2341 16.368C83.2581 15.072 81.7221 14.424 79.6261 14.424C77.2581 14.424 75.4981 15.16 74.3461 16.632C73.1941 18.088 72.6181 20.224 72.6181 23.04C72.6181 25.664 73.1941 27.696 74.3461 29.136C75.4981 30.576 77.1781 31.296 79.3861 31.296C80.8101 31.296 82.0341 30.984 83.0581 30.36C84.0981 29.72 84.8981 28.8 85.4581 27.6L91.1701 29.328C90.1781 31.664 88.6421 33.48 86.5621 34.776C84.4981 36.072 82.2181 36.72 79.7221 36.72ZM70.7941 24.648V20.28H88.6261V24.648H70.7941Z" fill="#f2f2f2"/>
<path d="M96.8356 36V30.072H102.764V36H96.8356Z" fill="#FF8A71"/>
</svg>
